<svg width="40" height="40" viewBox="0 0 40 40" fill="none" xmlns="http://www.w3.org/2000/svg">
<path fill-rule="evenodd" clip-rule="evenodd" d="M12.6746 0.0797944C12.1893 0.193685 11.4791 0.611781 11.1331 0.987088C10.9575 1.17764 10.7024 1.56875 10.5662 1.85605C10.3421 2.32922 10.3188 2.44874 10.3195 3.12168C10.3202 3.76936 10.3482 3.92463 10.5377 4.33083C10.6573 4.58717 10.8409 4.90928 10.9457 5.04672L11.1363 5.29656L8.74235 12.1291C7.42572 15.887 6.19905 19.4016 6.01648 19.9394C5.83391 20.4771 4.40628 24.5603 2.84396 29.0131C0.0983775 36.8385 0.00333799 37.1287 5.2677e-05 37.6957C-0.00550107 38.6581 0.42816 39.3717 1.26983 39.785C1.64122 39.9673 1.81073 40.0024 2.30095 39.9981C2.86469 39.9931 3.17679 39.8915 10.2796 37.4042C18.0293 34.6902 25.1556 32.1982 30.6172 30.2925C32.4026 29.6695 34.0502 29.0914 34.2785 29.0077L34.6937 28.8555L34.9467 29.0485C35.0859 29.1547 35.4095 29.3393 35.6658 29.4589C36.072 29.6484 36.2273 29.6765 36.875 29.6772C37.5479 29.6779 37.6674 29.6546 38.1406 29.4304C38.8668 29.0864 39.3208 28.6423 39.6713 27.9331C39.9581 27.3527 39.9625 27.3296 39.9923 26.2459C40.0853 22.8597 39.3289 18.9507 37.9554 15.7191C33.8987 6.17429 24.4138 -0.0724251 14.0886 0.00063403C13.4779 0.00501445 12.8416 0.0406053 12.6746 0.0797944ZM16.1853 1.63805C21.1484 2.05661 25.8925 3.97664 29.6678 7.09472C30.5136 7.79316 32.163 9.44528 32.8695 10.3015C35.3994 13.3676 37.1376 16.9843 37.9247 20.8196C38.2725 22.5143 38.3849 23.6173 38.3928 25.4149C38.4001 27.0552 38.3957 27.104 38.2147 27.3952C37.6869 28.2441 36.4849 28.3883 35.7834 27.6869C35.4056 27.3091 35.3107 26.9378 35.3098 25.836C35.3043 18.1748 31.21 11.1712 24.5236 7.38524C21.4376 5.63792 17.7948 4.6894 14.1606 4.68682C13.6494 4.68643 13.087 4.64294 12.9109 4.59022C12.3297 4.41609 11.843 3.74174 11.8445 3.11261C11.8459 2.50999 12.3467 1.79856 12.8774 1.64556C13.2258 1.54512 15.0346 1.54098 16.1853 1.63805ZM15.012 6.28575C23.101 6.58479 30.2217 11.9809 32.7712 19.7438C33.4067 21.6786 33.6504 23.182 33.7414 25.7278C33.776 26.6958 33.7981 27.4955 33.7905 27.505C33.7581 27.5456 29.0387 29.1807 29.023 29.1568C29.0134 29.1423 28.9639 28.9192 28.9129 28.6611C28.6692 27.4274 27.6431 26.1174 26.4715 25.5436C25.0675 24.8562 23.5089 24.8716 22.1447 25.5863C21.5102 25.9188 20.5612 26.8678 20.2287 27.5023C19.9022 28.1255 19.6662 29.0548 19.6662 29.7171C19.6662 30.3327 19.8887 31.2648 20.1666 31.8131L20.3642 32.2033L19.9174 32.3671C17.9214 33.0988 2.40005 38.4779 2.28475 38.4779C1.90483 38.4779 1.51873 38.0884 1.51873 37.7049C1.51873 37.628 2.75479 34.0305 4.26548 29.7104C5.77618 25.3904 7.08733 21.6393 7.17924 21.3748L7.34625 20.8937L7.85352 21.2013C9.71175 22.3279 12.0324 22.0407 13.5675 20.494C14.2448 19.8116 14.5933 19.2081 14.8184 18.3283C15.1006 17.2247 14.9541 16.0247 14.4103 14.9868C14.0779 14.3523 13.1289 13.4033 12.4943 13.0709C11.9706 12.7965 10.9656 12.5083 10.5325 12.5083C10.313 12.5083 10.2721 12.484 10.3128 12.378C10.4114 12.121 12.4698 6.2299 12.4698 6.20471C12.4698 6.19048 12.8129 6.19447 13.2324 6.21347C13.6519 6.23256 14.4527 6.26502 15.012 6.28575ZM18.5035 10.2684C16.7304 11.161 16.5466 11.2952 16.54 11.7028C16.5334 12.1196 16.908 12.5083 17.3163 12.5083C17.4049 12.5083 18.2793 12.1069 19.2597 11.6165C21.0852 10.703 21.2306 10.5957 21.2306 10.1616C21.2306 9.75309 20.8419 9.3741 20.4327 9.38364C20.3338 9.38591 19.4656 9.78406 18.5035 10.2684ZM11.5647 14.3715C12.2705 14.7019 12.7271 15.151 13.0772 15.8593C13.3532 16.4178 13.3693 16.4917 13.3693 17.2016C13.3693 17.9115 13.3532 17.9854 13.0772 18.5439C12.7253 19.2559 12.2724 19.6993 11.5452 20.0438C11.0727 20.2677 10.9516 20.2914 10.2796 20.2914C9.60826 20.2914 9.48733 20.2677 9.02801 20.0472C8.74837 19.913 8.38222 19.6824 8.21427 19.5347L7.90897 19.2663L8.79617 16.7282C9.28411 15.3323 9.72067 14.1617 9.76635 14.1269C9.81203 14.0921 10.1221 14.08 10.4555 14.0999C10.9131 14.1272 11.185 14.1938 11.5647 14.3715ZM23.6256 14.1547C23.1306 14.2791 22.4261 14.696 22.0842 15.067C21.9086 15.2576 21.6534 15.6487 21.5173 15.936C21.2931 16.4091 21.2697 16.529 21.2697 17.2057C21.2697 17.9108 21.2861 17.986 21.5619 18.5439C21.9137 19.2559 22.3666 19.6993 23.0938 20.0438C23.5664 20.2677 23.6875 20.2914 24.3595 20.2914C25.0315 20.2914 25.1526 20.2677 25.6251 20.0438C26.3523 19.6993 26.8052 19.2559 27.1571 18.5439C27.4331 17.9854 27.4492 17.9115 27.4492 17.2016C27.4492 16.4917 27.4331 16.4178 27.1571 15.8593C26.6285 14.7898 25.6895 14.1622 24.5354 14.1073C24.202 14.0914 23.7926 14.1128 23.6256 14.1547ZM25.2187 15.9009C25.6851 16.2095 25.8848 16.5994 25.8848 17.2016C25.8848 17.8116 25.6847 18.1939 25.1964 18.517C24.76 18.8058 23.9961 18.8171 23.5525 18.5413C22.9603 18.1732 22.6821 17.4423 22.8694 16.7469C22.977 16.3471 23.4557 15.835 23.8284 15.7209C24.2385 15.5954 24.8832 15.6789 25.2187 15.9009ZM16.937 18.8752C16.7165 18.9974 16.544 19.2817 16.54 19.5293C16.5386 19.6265 16.9387 20.508 17.4291 21.4884C18.3426 23.3139 18.4499 23.4593 18.884 23.4593C19.2823 23.4593 19.6662 23.077 19.6662 22.6803C19.6662 22.5918 19.2648 21.7173 18.7744 20.737C18.0712 19.3316 17.8388 18.9347 17.6756 18.8603C17.411 18.7397 17.1727 18.7445 16.937 18.8752ZM27.8881 22.0041C27.5179 22.2092 27.3946 22.6599 27.5998 23.0569C27.7716 23.389 28.0253 23.4593 29.0528 23.4593C30.0802 23.4593 30.334 23.389 30.5058 23.0569C30.7151 22.6519 30.57 22.1619 30.1892 21.9884C29.8996 21.8564 28.1327 21.8685 27.8881 22.0041ZM10.6793 23.5685C10.3091 23.7736 10.1858 24.2243 10.391 24.6213C10.5628 24.9534 10.8166 25.0238 11.844 25.0238C12.8714 25.0238 13.1252 24.9534 13.297 24.6213C13.5064 24.2164 13.3612 23.7263 12.9804 23.5528C12.6908 23.4208 10.924 23.4329 10.6793 23.5685ZM16.937 25.133C16.2589 25.5088 16.5426 26.5882 17.3195 26.5882C17.7159 26.5882 18.1017 26.2061 18.1017 25.8136C18.1017 25.2263 17.4527 24.8471 16.937 25.133ZM25.6446 26.887C25.9212 27.0165 26.309 27.2712 26.5063 27.453C26.9815 27.8911 27.4065 28.7467 27.4311 29.3147L27.4492 29.7337L24.8017 30.6611C23.3455 31.1713 22.0898 31.6091 22.0112 31.6341C21.8953 31.6708 21.8118 31.5651 21.569 31.0738C21.2853 30.4998 21.2697 30.4295 21.2697 29.7211C21.2697 29.0445 21.2931 28.9246 21.5173 28.4514C21.8316 27.788 22.2791 27.3023 22.8628 26.9912C23.4789 26.6628 23.8161 26.5885 24.5354 26.6228C25.0049 26.6451 25.255 26.7047 25.6446 26.887ZM8.67007 28.3135C8.11924 28.5254 7.66899 28.9367 7.40968 29.4649C7.22727 29.8364 7.19012 30.0125 7.19145 30.4993C7.19411 31.4653 7.62839 32.1771 8.46623 32.5886C8.8327 32.7685 9.01362 32.8068 9.49734 32.8068C10.8554 32.8068 11.7995 31.8621 11.8032 30.4993C11.8046 30.0125 11.7674 29.8364 11.585 29.4649C11.0578 28.3912 9.78004 27.8865 8.67007 28.3135ZM9.87711 29.8285C10.405 30.1015 10.3892 30.943 9.85153 31.188C9.45018 31.3709 9.01276 31.239 8.82659 30.8791C8.45942 30.169 9.16709 29.4614 9.87711 29.8285Z" fill="#4CE2B2"/>
</svg>
